HIERARCHY
ROOT joint_Root
{
	OFFSET 0.0 0.0 0.0
	CHANNELS 6 Xposition Yposition Zposition Zrotation Xrotation Yrotation 
	JOINT Hips
	{
		OFFSET -17.1583 93.1646 452.98
		CHANNELS 6 Xposition Yposition Zposition Zrotation Xrotation Yrotation 
		JOINT Spine
		{
			OFFSET 15.7357 0.0 0.0
			CHANNELS 6 Xposition Yposition Zposition Zrotation Xrotation Yrotation 
			JOINT Chest
			{
				OFFSET 8.98455 -0.406207 0.0
				CHANNELS 6 Xposition Yposition Zposition Zrotation Xrotation Yrotation 
				JOINT Neck
				{
					OFFSET 16.3773 0.0 0.0
					CHANNELS 6 Xposition Yposition Zposition Zrotation Xrotation Yrotation 
					JOINT Head
					{
						OFFSET 6.45672 0.0 0.0
						CHANNELS 6 Xposition Yposition Zposition Zrotation Xrotation Yrotation 
						End Site
						{
							OFFSET 0.0 0.0 0.0
						}
					}
				}
				JOINT Shoulder_L
				{
					OFFSET 12.9942 -0.242716 4.98039
					CHANNELS 6 Xposition Yposition Zposition Zrotation Xrotation Yrotation 
					JOINT UpperArm_L
					{
						OFFSET 5.34809 0.0 0.0
						CHANNELS 6 Xposition Yposition Zposition Zrotation Xrotation Yrotation 
						JOINT LowerArm_L
						{
							OFFSET 24.3286 1.87007e-05 0.0
							CHANNELS 6 Xposition Yposition Zposition Zrotation Xrotation Yrotation 
							JOINT Hand_L
							{
								OFFSET 22.2916 0.0 0.0
								CHANNELS 6 Xposition Yposition Zposition Zrotation Xrotation Yrotation 
								End Site
								{
									OFFSET 0.0 0.0 0.0
								}
							}
						}
					}
				}
				JOINT Shoulder_R
				{
					OFFSET 12.9945 -0.242716 -4.98039
					CHANNELS 6 Xposition Yposition Zposition Zrotation Xrotation Yrotation 
					JOINT UpperArm_R
					{
						OFFSET -5.34813 0.0 0.0
						CHANNELS 6 Xposition Yposition Zposition Zrotation Xrotation Yrotation 
						JOINT LowerArm_R
						{
							OFFSET -24.3289 0.000322201 0.0
							CHANNELS 6 Xposition Yposition Zposition Zrotation Xrotation Yrotation 
							JOINT Hand_R
							{
								OFFSET -22.2915 -0.000108084 0.0
								CHANNELS 6 Xposition Yposition Zposition Zrotation Xrotation Yrotation 
								End Site
								{
									OFFSET 0.0 0.0 0.0
								}
							}
						}
					}
				}
			}
		}
		JOINT UpperLeg_L
		{
			OFFSET -2.19248 -6.46944 0.0
			CHANNELS 6 Xposition Yposition Zposition Zrotation Xrotation Yrotation 
			JOINT LowerLeg_L
			{
				OFFSET 39.0811 0.0 -1.23785e-05
				CHANNELS 6 Xposition Yposition Zposition Zrotation Xrotation Yrotation 
				JOINT Foot_L
				{
					OFFSET 40.9854 0.0 -1.26872e-05
					CHANNELS 6 Xposition Yposition Zposition Zrotation Xrotation Yrotation 
					JOINT Toes_L
					{
						OFFSET 11.7543 0.0 0.0
						CHANNELS 6 Xposition Yposition Zposition Zrotation Xrotation Yrotation 
						End Site
						{
							OFFSET 0.0 0.0 0.0
						}
					}
				}
			}
		}
		JOINT UpperLeg_R
		{
			OFFSET -2.19251 6.46944 0.0
			CHANNELS 6 Xposition Yposition Zposition Zrotation Xrotation Yrotation 
			JOINT LowerLeg_R
			{
				OFFSET -39.0811 -0.00228153 -0.0401928
				CHANNELS 6 Xposition Yposition Zposition Zrotation Xrotation Yrotation 
				JOINT Foot_R
				{
					OFFSET -40.9854 0.0 0.0
					CHANNELS 6 Xposition Yposition Zposition Zrotation Xrotation Yrotation 
					JOINT Toes_R
					{
						OFFSET -11.7543 0.0 0.0
						CHANNELS 6 Xposition Yposition Zposition Zrotation Xrotation Yrotation 
						End Site
						{
							OFFSET 0.0 0.0 0.0
						}
					}
				}
			}
		}
	}
}
MOTION
Frames:	5
Frame Time:	0.0333333
0.000000 0.000000 0.000000 0.000000 0.000000 -0.000000 99.350800 91.635500 162.935000 -77.487600 56.893800 177.814000 15.735700 0.000005 -0.000001 71.842700 83.383800 -69.943700 8.984550 -0.406207 -0.000000 4.889740 -4.163280 3.972770 16.377300 -0.000001 -0.000001 12.970400 16.971600 -9.349550 6.456720 -0.000001 -0.000000 -5.440880 25.466800 0.927621 12.994200 -0.242716 4.980390 -92.729800 6.970930 -68.551900 5.348090 -0.000007 -0.000001 -71.476900 3.635670 -5.116380 24.328600 0.000019 0.000005 33.771400 22.884300 -59.820100 22.291600 -0.000001 0.000005 51.134900 4.511760 16.404200 12.994500 -0.242716 -4.980390 87.963000 5.039550 -67.957500 -5.348130 -0.000001 -0.000004 -69.179500 7.867960 6.867760 -24.328900 0.000322 -0.000009 -0.310210 -3.034400 -5.819770 -22.291500 -0.000108 -0.000004 41.217700 5.537060 -8.109800 -2.192480 -6.469440 -0.000000 175.325000 -0.007082 11.430800 39.081100 -0.000007 -0.000012 0.062952 -0.258889 13.667000 40.985400 -0.000006 -0.000013 15.734800 20.866700 -68.964200 11.754300 -0.000000 0.000003 0.000829 0.152257 -10.402000 -2.192510 6.469440 -0.000001 177.340000 -4.867280 165.159000 -39.081100 -0.002282 -0.040193 -0.026347 0.033142 41.788300 -40.985400 0.000008 0.000006 -0.937192 -18.335800 -67.071900 -11.754300 -0.000006 -0.000006 -0.001946 0.195706 -8.633410
0.000000 0.000000 0.000000 0.000000 0.000000 -0.000000 102.028000 91.596000 161.955000 -79.115400 52.716400 179.110000 15.735700 0.000005 -0.000001 69.608300 83.200500 -67.895000 8.984550 -0.406207 -0.000000 5.068500 -4.769090 3.635450 16.377300 -0.000001 -0.000001 12.938500 16.425800 -8.258270 6.456720 -0.000001 -0.000000 -5.622980 24.870800 1.254760 12.994200 -0.242716 4.980390 -92.499300 6.478800 -68.851700 5.348090 -0.000007 -0.000001 -71.322500 3.389130 -7.429610 24.328600 0.000019 0.000005 36.680700 21.143700 -64.160800 22.291600 -0.000001 0.000005 51.810400 4.474290 17.023100 12.994500 -0.242716 -4.980390 88.122600 4.503460 -67.341300 -5.348130 -0.000001 -0.000004 -69.635700 6.167890 9.223050 -24.328900 0.000322 -0.000009 -0.205985 -2.215290 -5.286460 -22.291500 -0.000108 -0.000004 40.955200 5.528220 -7.717340 -2.192480 -6.469440 -0.000000 176.210000 2.620980 12.346900 39.081100 -0.000007 -0.000012 0.007804 -0.030282 14.452600 40.985400 -0.000006 -0.000013 9.283290 23.989400 -66.735100 11.754300 -0.000000 0.000003 2.662730 3.938730 -13.911200 -2.192510 6.469440 -0.000001 176.552000 -8.475560 165.509000 -39.081100 -0.002282 -0.040193 -0.000019 0.005373 31.691100 -40.985400 0.000008 0.000006 -2.174460 -15.788000 -69.356800 -11.754300 -0.000006 -0.000006 -0.002351 0.200691 -8.430660
0.000000 0.000000 0.000000 0.000000 0.000000 -0.000000 104.812000 91.382300 160.759000 -80.263700 50.028900 -179.821000 15.735700 0.000005 -0.000001 69.446800 82.995900 -67.940700 8.984550 -0.406207 -0.000000 5.433250 -4.937500 3.244690 16.377300 -0.000001 -0.000001 12.588100 16.235300 -7.255340 6.456720 -0.000001 -0.000000 -5.712320 24.563100 1.692220 12.994200 -0.242716 4.980390 -92.343400 6.077100 -68.865900 5.348090 -0.000007 -0.000001 -71.364700 2.289480 -8.968190 24.328600 0.000019 0.000005 37.790500 18.559300 -67.683300 22.291600 -0.000001 0.000005 52.139800 4.454580 17.344200 12.994500 -0.242716 -4.980390 88.376800 3.872690 -67.238400 -5.348130 -0.000001 -0.000004 -70.324000 5.569830 10.606300 -24.328900 0.000322 -0.000009 -0.146948 -1.856720 -4.495010 -22.291500 -0.000108 -0.000004 41.133600 5.525390 -7.594660 -2.192480 -6.469440 -0.000000 176.127000 4.575340 13.545300 39.081100 -0.000007 -0.000012 0.006956 -0.024315 15.965300 40.985400 -0.000006 -0.000013 9.294630 24.687200 -67.137100 11.754300 -0.000000 0.000003 2.939480 4.122300 -15.234200 -2.192510 6.469440 -0.000001 175.556000 -13.326300 165.718000 -39.081100 -0.002282 -0.040193 0.001994 0.003110 23.025800 -40.985400 0.000008 0.000006 -4.115580 -11.455700 -71.011800 -11.754300 -0.000006 -0.000006 -0.002353 0.200717 -8.429630
0.000000 0.000000 0.000000 0.000000 0.000000 -0.000000 107.781000 91.057600 159.302000 -81.069400 48.149400 -179.046000 15.735700 0.000005 -0.000001 69.629300 82.833200 -68.292600 8.984550 -0.406207 -0.000000 5.748170 -5.000660 2.922990 16.377300 -0.000001 -0.000001 12.406300 16.227800 -6.401330 6.456720 -0.000001 -0.000000 -5.970370 24.451600 1.964410 12.994200 -0.242716 4.980390 -92.316100 6.011020 -68.882400 5.348090 -0.000007 -0.000001 -71.276000 0.660007 -9.656440 24.328600 0.000019 0.000005 38.221000 16.109100 -70.591400 22.291600 -0.000001 0.000005 52.478100 4.420840 17.889400 12.994500 -0.242716 -4.980390 88.611900 3.309330 -67.228700 -5.348130 -0.000001 -0.000004 -70.933900 5.251550 11.002500 -24.328900 0.000322 -0.000009 -0.168701 -2.644620 -3.629050 -22.291500 -0.000108 -0.000004 41.921600 5.518830 -7.313420 -2.192480 -6.469440 -0.000000 176.115000 5.617600 14.637400 39.081100 -0.000007 -0.000012 0.009036 -0.027677 18.081500 40.985400 -0.000006 -0.000013 10.004800 25.157800 -67.820400 11.754300 -0.000000 0.000003 2.324540 3.067490 -16.130000 -2.192510 6.469440 -0.000001 174.886000 -16.622400 165.510000 -39.081100 -0.002282 -0.040193 -0.011799 0.049998 16.832000 -40.985400 0.000008 0.000006 -6.254950 -4.944440 -72.113300 -11.754300 -0.000006 -0.000006 -0.003054 0.208879 -8.097520
0.000000 0.000000 0.000000 0.000000 0.000000 -0.000000 110.997000 90.619500 157.557000 -81.628200 46.129000 -178.575000 15.735700 0.000005 -0.000001 68.510100 82.764100 -67.264000 8.984550 -0.406207 -0.000000 5.778130 -5.309960 2.759010 16.377300 -0.000001 -0.000001 12.342600 16.169400 -5.830960 6.456720 -0.000001 -0.000000 -6.148150 24.423300 2.440750 12.994200 -0.242716 4.980390 -92.321000 5.992680 -68.782800 5.348090 -0.000007 -0.000001 -71.257100 -0.720214 -9.588610 24.328600 0.000019 0.000005 39.081300 14.656100 -72.695800 22.291600 -0.000001 0.000005 52.675000 4.381120 18.521900 12.994500 -0.242716 -4.980390 88.715300 3.033200 -67.032600 -5.348130 -0.000001 -0.000004 -71.036800 4.975030 10.729100 -24.328900 0.000322 -0.000009 -0.116639 -2.410620 -2.745950 -22.291500 -0.000108 -0.000004 42.710200 5.512530 -7.046860 -2.192480 -6.469440 -0.000000 176.323000 6.471740 15.576700 39.081100 -0.000007 -0.000012 0.010404 -0.027713 20.577300 40.985400 -0.000006 -0.000013 10.988000 25.747400 -68.144600 11.754300 -0.000000 0.000003 1.277400 1.520970 -17.560900 -2.192510 6.469440 -0.000001 175.627000 -14.033500 165.735000 -39.081100 -0.002282 -0.040193 -0.031683 0.156553 12.608200 -40.985400 0.000008 0.000006 -9.297440 4.495170 -71.954700 -11.754300 -0.000006 -0.000006 -0.002826 0.206285 -8.203060
